<svg width="24" height="26" viewBox="0 0 24 26" fill="none" xmlns="http://www.w3.org/2000/svg">
<path d="M12 15.877C6.47706 15.877 2 17.4147 2 19.3126C2 20.3441 2.00059 21.2693 3.60797 21.8993L3.94217 21.307C4.5505 20.2276 5.76273 19.5576 7.10541 19.5576C8.19722 19.5576 9.20305 20.0012 9.86791 20.7474H14.1321C14.7972 20.0012 15.8031 19.5576 16.8949 19.5576C18.2376 19.5576 19.4492 20.2276 20.0581 21.307L20.3923 21.8991C21.9997 21.2693 22 20.3441 22 19.3126C22 17.4153 17.5229 15.877 12 15.877Z" fill="white"/>
<path d="M6.32129 9.46236C6.32188 12.2787 8.86884 14.5701 12 14.5701C15.1314 14.5701 17.6781 12.2787 17.6781 9.46236C17.6781 9.30665 17.6693 9.15253 17.6537 9H6.34573C6.33042 9.15253 6.32129 9.30665 6.32129 9.46236Z" fill="white"/>
<path d="M6.02491 8.18204H17.9741C18.4403 8.18204 18.8174 7.84255 18.8174 7.42388C18.8174 7.00494 18.4403 6.66625 17.9741 6.66625H17.7451C17.7451 4.65208 16.463 2.90881 14.5939 2.05611L14.1178 4.48392C14.0798 4.67644 13.894 4.8115 13.6838 4.8115C13.6584 4.8115 13.6328 4.80938 13.6069 4.8054C13.3675 4.76701 13.2076 4.56178 13.2506 4.34622L13.7936 1.57309C13.5901 1.27968 13.2285 1.08398 12.8149 1.08398H11.1842C10.7714 1.08398 10.4098 1.27968 10.2061 1.57309L10.7496 4.34622C10.7923 4.56178 10.6324 4.76701 10.3927 4.8054C10.3668 4.80938 10.3412 4.8115 10.3159 4.8115C10.1059 4.8115 9.91926 4.67644 9.88216 4.48392L9.40574 2.05638C7.5363 2.90881 6.25458 4.65181 6.25458 6.66625H6.02491C5.55939 6.66625 5.1825 7.00521 5.1825 7.42388C5.1825 7.84255 5.55939 8.18204 6.02491 8.18204Z" fill="white"/>
<path d="M17.1369 21.7701H19.0446C18.6462 21.0647 17.8347 20.5801 16.8945 20.5801C15.955 20.5801 15.1426 21.0647 14.7445 21.7701H9.25482C8.85673 21.0647 8.04494 20.5801 7.10507 20.5801C6.1649 20.5801 5.35281 21.0647 4.95502 21.7701H6.86274L7.10507 22.1478L7.49079 22.7492L7.10507 23.35L6.86274 23.7276H4.95502C5.35281 24.4331 6.1649 24.9174 7.10507 24.9174C8.04464 24.9174 8.85673 24.4331 9.25482 23.7274H14.7448C15.1426 24.4331 15.955 24.9174 16.8945 24.9174C17.8344 24.9174 18.6462 24.4331 19.0446 23.7274H17.1369L16.8945 23.3498L16.5085 22.7489L16.8945 22.1475L17.1369 21.7701Z" fill="white"/>
</svg>
