<svg width="25" height="26" viewBox="0 0 25 26" fill="none" xmlns="http://www.w3.org/2000/svg">
<g clip-path="url(#clip0)">
<path d="M5.08511 22.4238L4.81974 23.2151C4.80271 23.2665 4.79754 23.3204 4.80454 23.3736C4.81154 23.4268 4.83056 23.4782 4.86049 23.5249C4.92402 23.6175 5.02647 23.6845 5.14579 23.7116L10.5799 24.9032C10.6793 24.9257 10.7845 24.9174 10.8777 24.8798C10.971 24.8422 11.0465 24.7775 11.0917 24.6966L11.4843 24.0091L5.02805 22.5954L5.08511 22.4238Z" fill="#A257FF"/>
<path d="M19.972 22.5977L13.5158 24.0113L13.9084 24.6989C13.9461 24.7644 14.0036 24.8195 14.0748 24.858C14.1459 24.8966 14.2278 24.9171 14.3115 24.9173C14.3481 24.9173 14.3846 24.9133 14.4201 24.9054L19.8543 23.7138C19.9736 23.6868 20.0761 23.6197 20.1396 23.5271C20.1695 23.4804 20.1885 23.429 20.1955 23.3758C20.2025 23.3226 20.1974 23.2687 20.1803 23.2173L19.972 22.5977Z" fill="#A257FF"/>
<path d="M17.9341 16.5203V14.987C17.9341 14.8817 17.8864 14.7807 17.8015 14.7062C17.7166 14.6317 17.6014 14.5898 17.4813 14.5898H7.51866C7.39856 14.5898 7.28338 14.6317 7.19845 14.7062C7.11352 14.7807 7.06581 14.8817 7.06581 14.987V16.5203L5.28296 21.8352L11.8977 23.2846L12.5 22.232L13.1023 23.2846L19.717 21.8352L17.9341 16.5203ZM17.0284 16.1787H7.97151V15.3843H17.0284V16.1787Z" fill="#A257FF"/>
<path d="M12.4999 2.6728C13.7484 2.6728 14.7641 1.96021 14.7641 1.08398H10.2357C10.2357 1.96021 11.2514 2.6728 12.4999 2.6728Z" fill="#A257FF"/>
<path d="M22.7479 4.75017L18.5183 1.71554C17.9537 1.30683 17.2443 1.08351 16.5122 1.08399H15.6699C15.6699 2.39833 14.2475 3.4672 12.5 3.4672C10.7524 3.4672 9.33006 2.39833 9.33006 1.08399H8.48776C7.75568 1.08351 7.0463 1.30683 6.48165 1.71554L2.25207 4.75017C2.20524 4.7833 2.16634 4.82421 2.13759 4.87056C2.10883 4.91691 2.0908 4.96779 2.08452 5.02027C2.07579 5.12691 2.11477 5.23235 2.1932 5.3142L4.91028 8.09462C4.94993 8.13511 4.99839 8.16826 5.05281 8.19213C5.10724 8.216 5.16655 8.23011 5.22727 8.23364C5.34861 8.2384 5.46726 8.20134 5.55785 8.13037L7.06582 6.94273V13.3973C7.06582 13.5026 7.11354 13.6037 7.19846 13.6781C7.28339 13.7526 7.39857 13.7945 7.51867 13.7945H17.4813C17.6014 13.7945 17.7166 13.7526 17.8015 13.6781C17.8864 13.6037 17.9341 13.5026 17.9341 13.3973V6.94273L19.4421 8.13037C19.5331 8.20075 19.6515 8.23773 19.7727 8.23364C19.8334 8.23011 19.8927 8.216 19.9471 8.19213C20.0016 8.16826 20.05 8.13511 20.0897 8.09462L22.8068 5.3142C22.8852 5.23235 22.9242 5.12691 22.9154 5.02027C22.9092 4.96779 22.8911 4.91691 22.8624 4.87056C22.8336 4.82421 22.7947 4.7833 22.7479 4.75017ZM14.7642 7.43924C14.4955 7.43924 14.2329 7.36935 14.0094 7.23841C13.786 7.10748 13.6119 6.92137 13.5091 6.70364C13.4063 6.4859 13.3794 6.2463 13.4318 6.01515C13.4842 5.78401 13.6136 5.57168 13.8036 5.40503C13.9936 5.23838 14.2356 5.12489 14.4992 5.07891C14.7627 5.03293 15.0359 5.05653 15.2841 5.14672C15.5323 5.23691 15.7445 5.38964 15.8938 5.5856C16.0431 5.78156 16.1228 6.01195 16.1228 6.24763C16.1228 6.56366 15.9796 6.86675 15.7248 7.09022C15.4701 7.31369 15.1245 7.43924 14.7642 7.43924Z" fill="#A257FF"/>
</g>
<defs>
<clipPath id="clip0">
<rect width="25" height="26" fill="white"/>
</clipPath>
</defs>
</svg>
