<svg width="25" height="26" viewBox="0 0 25 26" fill="none" xmlns="http://www.w3.org/2000/svg">
<path fill-rule="evenodd" clip-rule="evenodd" d="M22.6344 14.8835C23.0658 15.1099 23.3987 15.4674 23.6329 15.8249C24.0889 16.5637 24.0519 17.4694 23.6082 18.2678L22.7454 19.6978C22.2893 20.4605 21.4388 20.9371 20.5636 20.9371C20.1322 20.9371 19.6515 20.818 19.257 20.5797C18.9366 20.3771 18.5668 20.3056 18.1723 20.3056C16.952 20.3056 15.929 21.2947 15.892 22.4744C15.892 23.8448 14.758 24.9173 13.3404 24.9173H11.6641C10.2342 24.9173 9.10022 23.8448 9.10022 22.4744C9.07556 21.2947 8.05249 20.3056 6.83219 20.3056C6.42542 20.3056 6.05563 20.3771 5.74748 20.5797C5.35304 20.818 4.85999 20.9371 4.4409 20.9371C3.55341 20.9371 2.7029 20.4605 2.24683 19.6978L1.39632 18.2678C0.940245 17.4932 0.915593 16.5637 1.37166 15.8249C1.56888 15.4674 1.93867 15.1099 2.35776 14.8835C2.7029 14.7167 2.92477 14.4426 3.13432 14.1208C3.75063 13.096 3.38084 11.7494 2.33311 11.1417C1.11281 10.4624 0.718373 8.94898 1.42097 7.76923L2.24683 6.36307C2.96175 5.18332 4.4902 4.76623 5.72283 5.4574C6.79521 6.0294 8.18807 5.64807 8.81671 4.63515C9.01393 4.30148 9.12487 3.94398 9.10022 3.58648C9.07556 3.12173 9.21115 2.68082 9.44535 2.32332C9.90142 1.58448 10.7273 1.10782 11.6271 1.08398H13.3651C14.2772 1.08398 15.1031 1.58448 15.5592 2.32332C15.781 2.68082 15.929 3.12173 15.892 3.58648C15.8673 3.94398 15.9783 4.30148 16.1755 4.63515C16.8041 5.64807 18.197 6.0294 19.2817 5.4574C20.502 4.76623 22.0428 5.18332 22.7454 6.36307L23.5712 7.76923C24.2861 8.94898 23.8917 10.4624 22.6591 11.1417C21.6113 11.7494 21.2416 13.096 21.8702 14.1208C22.0674 14.4426 22.2893 14.7167 22.6344 14.8835ZM9.01402 13.0127C9.01402 14.8836 10.5795 16.3732 12.5147 16.3732C14.4499 16.3732 15.9783 14.8836 15.9783 13.0127C15.9783 11.1417 14.4499 9.64025 12.5147 9.64025C10.5795 9.64025 9.01402 11.1417 9.01402 13.0127Z" fill="white"/>
</svg>
